<svg id="visual" viewBox="0 0 960 540" width="960" height="540" xmlns="http://www.w3.org/2000/svg" xmlns:xlink="http://www.w3.org/1999/xlink" version="1.1"><path d="M0 331L22.8 331C45.7 331 91.3 331 137 334C182.7 337 228.3 343 274 341.8C319.7 340.7 365.3 332.3 411.2 332.5C457 332.7 503 341.3 548.8 347C594.7 352.7 640.3 355.3 686 356.5C731.7 357.7 777.3 357.3 823 350.5C868.7 343.7 914.3 330.3 937.2 323.7L960 317L960 541L937.2 541C914.3 541 868.7 541 823 541C777.3 541 731.7 541 686 541C640.3 541 594.7 541 548.8 541C503 541 457 541 411.2 541C365.3 541 319.7 541 274 541C228.3 541 182.7 541 137 541C91.3 541 45.7 541 22.8 541L0 541Z" fill="#342056"></path><path d="M0 393L22.8 391.2C45.7 389.3 91.3 385.7 137 383.7C182.7 381.7 228.3 381.3 274 387.3C319.7 393.3 365.3 405.7 411.2 409.2C457 412.7 503 407.3 548.8 405C594.7 402.7 640.3 403.3 686 397.8C731.7 392.3 777.3 380.7 823 384.7C868.7 388.7 914.3 408.3 937.2 418.2L960 428L960 541L937.2 541C914.3 541 868.7 541 823 541C777.3 541 731.7 541 686 541C640.3 541 594.7 541 548.8 541C503 541 457 541 411.2 541C365.3 541 319.7 541 274 541C228.3 541 182.7 541 137 541C91.3 541 45.7 541 22.8 541L0 541Z" fill="#25487f"></path><path d="M0 424L22.8 428.2C45.7 432.3 91.3 440.7 137 444.2C182.7 447.7 228.3 446.3 274 440.5C319.7 434.7 365.3 424.3 411.2 418.2C457 412 503 410 548.8 417.3C594.7 424.7 640.3 441.3 686 443C731.7 444.7 777.3 431.3 823 424.2C868.7 417 914.3 416 937.2 415.5L960 415L960 541L937.2 541C914.3 541 868.7 541 823 541C777.3 541 731.7 541 686 541C640.3 541 594.7 541 548.8 541C503 541 457 541 411.2 541C365.3 541 319.7 541 274 541C228.3 541 182.7 541 137 541C91.3 541 45.7 541 22.8 541L0 541Z" fill="#006f9d"></path><path d="M0 456L22.8 460.3C45.7 464.7 91.3 473.3 137 471.2C182.7 469 228.3 456 274 451.5C319.7 447 365.3 451 411.2 450.5C457 450 503 445 548.8 442.3C594.7 439.7 640.3 439.3 686 440C731.7 440.7 777.3 442.3 823 449.8C868.7 457.3 914.3 470.7 937.2 477.3L960 484L960 541L937.2 541C914.3 541 868.7 541 823 541C777.3 541 731.7 541 686 541C640.3 541 594.7 541 548.8 541C503 541 457 541 411.2 541C365.3 541 319.7 541 274 541C228.3 541 182.7 541 137 541C91.3 541 45.7 541 22.8 541L0 541Z" fill="#0094a6"></path><path d="M0 479L22.8 479.3C45.7 479.7 91.3 480.3 137 480C182.7 479.7 228.3 478.3 274 482C319.7 485.7 365.3 494.3 411.2 499.5C457 504.7 503 506.3 548.8 505C594.7 503.7 640.3 499.3 686 495.7C731.7 492 777.3 489 823 489.7C868.7 490.3 914.3 494.7 937.2 496.8L960 499L960 541L937.2 541C914.3 541 868.7 541 823 541C777.3 541 731.7 541 686 541C640.3 541 594.7 541 548.8 541C503 541 457 541 411.2 541C365.3 541 319.7 541 274 541C228.3 541 182.7 541 137 541C91.3 541 45.7 541 22.8 541L0 541Z" fill="#09b388"></path></svg>